<svg width="20" height="20" viewBox="0 0 20 20" fill="none" xmlns="http://www.w3.org/2000/svg">
<path d="M8.56942 4.4031C8.61138 4.21419 8.97166 4.21419 9.01362 4.4031C9.32049 5.78475 9.97468 8.03462 11.154 9.21391C12.3333 10.3932 14.5831 11.0474 15.9648 11.3543C16.1537 11.3962 16.1537 11.7565 15.9648 11.7985C14.5831 12.1053 12.3333 12.7595 11.154 13.9388C9.97468 15.1181 9.32049 17.368 9.01362 18.7496C8.97166 18.9386 8.61138 18.9386 8.56942 18.7496C8.26254 17.368 7.60835 15.1181 6.42906 13.9388C5.24977 12.7595 2.9999 12.1053 1.61825 11.7985C1.42933 11.7565 1.42933 11.3962 1.61825 11.3543C2.9999 11.0474 5.24977 10.3932 6.42906 9.21391C7.60835 8.03462 8.26254 5.78475 8.56942 4.4031Z" fill="white"/>
<path d="M15.5462 1.60746C15.6034 1.42259 16.0146 1.42995 16.0652 1.61675C16.2381 2.25585 16.5194 3.00542 16.9541 3.45596C17.3888 3.90651 18.1278 4.21448 18.7603 4.41017C18.9452 4.46736 18.9378 4.87856 18.751 4.9291C18.1119 5.10202 17.3624 5.38335 16.9118 5.81804C16.4613 6.25274 16.1533 6.99175 15.9576 7.62425C15.9004 7.80913 15.4892 7.80177 15.4387 7.61496C15.2658 6.97587 14.9844 6.2263 14.5498 5.77575C14.1151 5.32521 13.376 5.01723 12.7435 4.82155C12.5587 4.76435 12.566 4.35316 12.7528 4.30261C13.3919 4.1297 14.1415 3.84837 14.592 3.41367C15.0426 2.97898 15.3506 2.23996 15.5462 1.60746Z" fill="white"/>
</svg>
